<?xml version="1.0" encoding="UTF-8"?>
<svg width="23px" height="19px" viewBox="0 0 23 19" version="1.1" xmlns="http://www.w3.org/2000/svg" xmlns:xlink="http://www.w3.org/1999/xlink">
    <!-- Generator: Sketch 54.1 (76490) - https://sketchapp.com -->
    <title>twitter</title>
    <desc>Created with Sketch.</desc>
    <g id="Home" stroke="none" stroke-width="1" fill="none" fill-rule="evenodd">
        <g id="00_home" transform="translate(-668.000000, -1927.000000)" fill="#000000" fill-rule="nonzero">
            <g id="CARDS" transform="translate(100.000000, 1600.000000)">
                <g id="Card-Copy" transform="translate(426.000000, 0.000000)">
                    <g id="RRSS" transform="translate(53.000000, 316.000000)">
                        <g id="twitter" transform="translate(80.000000, 0.000000)">
                            <g transform="translate(9.000000, 11.000000)" id="Path">
                                <path d="M20.1317749,4.59387203 C20.140625,4.79071047 20.1448975,4.98846437 20.1448975,5.18713375 C20.1448975,11.2531128 15.5275879,18.2480469 7.08367922,18.248352 L7.08398438,18.248352 L7.08367922,18.248352 C4.49121094,18.248352 2.07879641,17.4884644 0.04724125,16.1862793 C0.406433125,16.2286987 0.772033672,16.2497559 1.14221188,16.2497559 C3.29309078,16.2497559 5.27246094,15.5161133 6.84381102,14.284729 C4.83422852,14.2474976 3.13989258,12.9202881 2.55517578,11.0962524 C2.83502195,11.1499634 3.12280273,11.1792602 3.41790773,11.1792602 C3.83691406,11.1792602 4.24279781,11.1228027 4.62854,11.0175171 C2.52801516,10.5969848 0.94567875,8.74060062 0.94567875,6.51770016 C0.94567875,6.49694828 0.94567875,6.4783325 0.946289063,6.45910641 C1.56488039,6.80303953 2.27227781,7.00994875 3.02545164,7.03314211 C1.79284672,6.21069336 0.982605,4.80474852 0.982605,3.21203609 C0.982605,2.37097172 1.20996094,1.58300781 1.60424805,0.904602031 C3.86804203,3.68231203 7.2512207,5.50909422 11.0665283,5.70104984 C10.987793,5.36474609 10.9472046,5.0144043 10.9472046,4.65429687 C10.9472046,2.12011719 13.0031738,0.0641479687 15.5382691,0.0641479687 C16.8587647,0.0641479687 18.0513916,0.622314453 18.8890991,1.51464844 C19.9349366,1.30834961 20.9169922,0.926269531 21.8041382,0.400451641 C21.4608155,1.47192383 20.7332764,2.37097172 19.7854004,2.93951414 C20.7140503,2.82843016 21.5990601,2.58215328 22.4215088,2.21655273 C21.8071899,3.13726805 21.0280762,3.94598391 20.1317749,4.59387203 Z"></path>
                            </g>
                        </g>
                    </g>
                </g>
            </g>
        </g>
    </g>
</svg>