<?xml version="1.0" encoding="UTF-8"?>
<svg width="26px" height="20px" viewBox="0 0 26 20" version="1.1" xmlns="http://www.w3.org/2000/svg" xmlns:xlink="http://www.w3.org/1999/xlink">
    <!-- Generator: Sketch 54.1 (76490) - https://sketchapp.com -->
    <title>youtube</title>
    <desc>Created with Sketch.</desc>
    <g id="Home" stroke="none" stroke-width="1" fill="none" fill-rule="evenodd">
        <g id="00_home" transform="translate(-586.000000, -1926.000000)" fill="#000000" fill-rule="nonzero">
            <g id="CARDS" transform="translate(100.000000, 1600.000000)">
                <g id="Card-Copy" transform="translate(426.000000, 0.000000)">
                    <g id="RRSS" transform="translate(53.000000, 316.000000)">
                        <g id="youtube">
                            <g id="youtube-(1)" transform="translate(7.000000, 10.000000)">
                                <path d="M17.0019989,8.68319705 L11.2579651,5.5403137 C10.9276886,5.35960389 10.5373077,5.36634825 10.2135773,5.5581665 C9.88964844,5.75018311 9.69644163,6.08938596 9.69644163,6.46588135 L9.69644163,12.6976929 C9.69644163,13.0724029 9.88845823,13.4110107 10.2102051,13.6032257 C10.3782196,13.703598 10.5644836,13.7539825 10.7511444,13.7539825 C10.9221344,13.7539825 11.0935211,13.711731 11.2512207,13.6268311 L16.9954529,10.5381012 C17.336441,10.3546143 17.5492859,10.0001373 17.5508728,9.61273193 C17.5522613,9.22532655 17.3419952,8.8692627 17.0019989,8.68319705 L17.0019989,8.68319705 Z" id="Shape"></path>
                                <path d="M25.8087769,4.64787294 L25.8075867,4.63597108 C25.7855682,4.42669678 25.5663758,2.56524658 24.661438,1.61845399 C23.6154633,0.504837023 22.4296417,0.369552625 21.8593445,0.3046875 C21.8121338,0.299331652 21.7688904,0.294372559 21.7302094,0.289215063 L21.684784,0.28445432 C18.2475281,0.0345154063 13.0565338,0.000396728516 13.0045624,0.000198364258 L13,0 L12.9954376,0.000198364258 C12.9434662,0.000396728516 7.7524719,0.0345154063 4.28427127,0.28445432 L4.23844911,0.289215063 C4.20155333,0.294174207 4.16088867,0.298736547 4.11665343,0.303894043 C3.55290223,0.36895752 2.37977599,0.50444032 1.33082579,1.6583252 C0.468933105,2.5950012 0.219787598,4.41658019 0.194198621,4.6212921 L0.191223145,4.64787294 C0.183486926,4.73495486 -2.88657986e-15,6.80805968 -2.88657986e-15,8.88929747 L-2.88657986e-15,10.8348541 C-2.88657986e-15,12.9160919 0.183486926,14.9891968 0.191223145,15.0764771 L0.192611707,15.0895691 C0.214630102,15.2954712 0.433624242,17.1228027 1.33439637,18.0699921 C2.31788634,19.1463165 3.56143186,19.2887421 4.23031619,19.3653107 C4.33604432,19.3774109 4.42709353,19.3877258 4.48918153,19.3986359 L4.54928591,19.4069672 C6.5339203,19.5958099 12.7564087,19.6888428 13.0202332,19.6926117 L13.0281677,19.6928101 L13.0361023,19.6926117 C13.0880737,19.6924133 18.2788696,19.6582947 21.7161255,19.4083557 L21.7615509,19.4035949 C21.8049927,19.3978424 21.8537903,19.3926849 21.9073486,19.3871308 C22.467926,19.3276215 23.6347046,19.2040405 24.6691742,18.0658264 C25.5310669,17.128952 25.7804108,15.307373 25.8058014,15.1028595 L25.8087769,15.0762787 C25.8165131,14.9889984 26.0001984,12.9160919 26.0001984,10.8348541 L26.0001984,8.88929747 C26,6.80805968 25.8165131,4.73515321 25.8087769,4.64787294 L25.8087769,4.64787294 Z M24.4763641,10.8348541 C24.4763641,12.7611694 24.3081513,14.7450104 24.2922821,14.9271088 C24.2276153,15.428772 23.9647827,16.5812683 23.5448456,17.0377045 C22.8973847,17.7500305 22.2322693,17.8206482 21.7466736,17.8720245 C21.6879578,17.8781738 21.633606,17.8841248 21.5844116,17.890274 C18.2598267,18.1306915 13.2648163,18.1675873 13.0347138,18.1689758 C12.7766418,18.1652069 6.64520264,18.0713806 4.72106934,17.8926544 C4.62248231,17.8765869 4.51596072,17.8642883 4.40368652,17.851593 C3.83418273,17.7863312 3.05461122,17.6970673 2.45515441,17.0377045 L2.44107053,17.0226288 C2.02847287,16.5927734 1.77317811,15.5150604 1.70831299,14.9330597 C1.69621278,14.7953949 1.52363585,12.788147 1.52363585,10.8348541 L1.52363585,8.88929747 C1.52363585,6.96516417 1.69145204,4.98350526 1.70771788,4.79763791 C1.78488162,4.20671083 2.05267334,3.12403868 2.45515441,2.68644716 C3.12245177,1.9524994 3.8260498,1.87117003 4.29141233,1.8174133 C4.33584592,1.81225586 4.37730409,1.80749512 4.41558838,1.80253602 C7.78857422,1.56092833 12.8194885,1.52502441 13,1.52363585 C13.1805115,1.52482606 18.2096405,1.56092833 21.5526733,1.80253602 C21.5937348,1.80769347 21.6385651,1.81285096 21.6867676,1.81840516 C22.1654205,1.8729553 22.888855,1.95547483 23.5527802,2.66363525 L23.5589295,2.67018126 C23.9715271,3.10003662 24.2268219,4.19659424 24.291687,4.79029845 C24.3031922,4.92022705 24.4763641,6.93183898 24.4763641,8.88929747 L24.4763641,10.8348541 Z" id="Shape"></path>
                            </g>
                        </g>
                    </g>
                </g>
            </g>
        </g>
    </g>
</svg>